<svg width="18" height="17" viewBox="0 0 18 17" fill="none" xmlns="http://www.w3.org/2000/svg">
<path d="M5.79591 6.95919C5.57142 6.71429 5.18367 6.69388 4.93877 6.91837C4.69387 7.14286 4.67346 7.53062 4.89795 7.77552L7.97959 11.1225C8.10203 11.2449 8.24489 11.3265 8.40816 11.3265C8.40816 11.3265 8.40816 11.3265 8.42857 11.3265C8.59183 11.3265 8.7551 11.2653 8.85714 11.1429L16.6531 3.36735C16.898 3.12245 16.898 2.7347 16.6531 2.51021C16.4082 2.28572 16.0204 2.26531 15.7959 2.51021L8.44897 9.83674L5.79591 6.95919Z" fill="white"/>
<path d="M16.5102 7.79597C16.1633 7.79597 15.898 8.06128 15.898 8.40822C15.898 12.2041 12.7959 15.3062 9 15.3062C5.20408 15.3062 2.10204 12.2041 2.10204 8.40822C2.10204 4.6123 5.20408 1.51026 9 1.51026C9.34694 1.51026 9.61224 1.24495 9.61224 0.898012C9.61224 0.551073 9.34694 0.285767 9 0.285767C4.53061 0.285767 0.877548 3.93883 0.877548 8.40822C0.877548 12.8776 4.53061 16.5307 9 16.5307C13.4694 16.5307 17.1224 12.8776 17.1224 8.40822C17.1224 8.06128 16.8571 7.79597 16.5102 7.79597Z" fill="white"/>
</svg>
