<svg width="20" height="20" viewBox="0 0 20 20" fill="none" xmlns="http://www.w3.org/2000/svg">
<path d="M3.9391 4.34729C0.591162 7.69522 0.591162 13.1212 3.9391 16.4691C7.28703 19.817 12.713 19.817 16.0609 16.4691C19.4089 13.1212 19.4089 7.69522 16.0609 4.34729C12.713 0.999353 7.28703 0.999354 3.9391 4.34729ZM15.1951 15.6033C12.3234 18.475 7.67666 18.475 4.80494 15.6033C1.93322 12.7316 1.93322 8.08485 4.80494 5.21313C7.67666 2.34141 12.3234 2.34141 15.1951 5.21313C18.0668 8.08485 18.0668 12.7316 15.1951 15.6033Z" fill="#4C75E6"/>
<path d="M12.0203 7.52206L10 9.54236L7.9797 7.52205C7.73438 7.27673 7.35918 7.27673 7.11386 7.52205C6.86853 7.76738 6.86853 8.14258 7.11386 8.3879L9.13416 10.4082L7.11386 12.4285C6.86854 12.6738 6.86854 13.049 7.11386 13.2944C7.35918 13.5397 7.73438 13.5397 7.9797 13.2944L10 11.2741L12.0203 13.2944C12.2656 13.5397 12.6408 13.5397 12.8862 13.2944C13.1315 13.049 13.1315 12.6738 12.8862 12.4285L10.8659 10.4082L12.8862 8.3879C13.1315 8.14258 13.1315 7.76738 12.8862 7.52206C12.6408 7.27673 12.2656 7.27673 12.0203 7.52206Z" fill="#4C75E6"/>
</svg>
