<svg width="18" height="18" viewBox="0 0 18 18" fill="none" xmlns="http://www.w3.org/2000/svg">
<path d="M9.00001 0.836792C4.26532 0.836792 0.428581 4.67353 0.428581 9.40822C0.428581 14.1429 4.26532 17.9796 9.00001 17.9796C13.7347 17.9796 17.5714 14.1429 17.5714 9.40822C17.5714 4.67353 13.7347 0.836792 9.00001 0.836792ZM9.00001 16.7552C4.93879 16.7552 1.65307 13.4694 1.65307 9.40822C1.65307 5.34699 4.93879 2.06128 9.00001 2.06128C13.0612 2.06128 16.3469 5.34699 16.3469 9.40822C16.3469 13.4694 13.0612 16.7552 9.00001 16.7552Z" fill="#4C75E6"/>
<path d="M12.4694 8.79593H9.61226V5.93878C9.61226 5.59184 9.34695 5.32654 9.00001 5.32654C8.65307 5.32654 8.38777 5.59184 8.38777 5.93878V8.79593H5.53063C5.18369 8.79593 4.91838 9.06123 4.91838 9.40817C4.91838 9.75511 5.18369 10.0204 5.53063 10.0204H8.38777V12.8776C8.38777 13.2245 8.65307 13.4898 9.00001 13.4898C9.34695 13.4898 9.61226 13.2245 9.61226 12.8776V10.0204H12.4694C12.8163 10.0204 13.0816 9.75511 13.0816 9.40817C13.0816 9.06123 12.8163 8.79593 12.4694 8.79593Z" fill="#4C75E6"/>
</svg>
